<?xml version="1.0" standalone="no"?>
<!DOCTYPE svg PUBLIC "-//W3C//DTD SVG 20010904//EN"
 "http://www.w3.org/TR/2001/REC-SVG-20010904/DTD/svg10.dtd">
<svg version="1.0" xmlns="http://www.w3.org/2000/svg"
 width="920.000000pt" height="920.000000pt" viewBox="0 0 920.000000 920.000000"
 preserveAspectRatio="xMidYMid meet">
<metadata>
Created by potrace 1.11, written by Peter Selinger 2001-2013
</metadata>
<g transform="translate(0.000000,920.000000) scale(0.100000,-0.100000)"
fill="#000000" stroke="none">
<path d="M4283 9129 c-1094 -66 -2089 -503 -2865 -1257 -499 -485 -871 -1062
-1099 -1702 -33 -95 -39 -105 -65 -111 -91 -19 -191 -95 -233 -178 -18 -34
-21 -59 -21 -161 0 -139 10 -169 85 -249 l44 -47 -14 -85 c-46 -286 -62 -740
-36 -1039 67 -762 309 -1458 726 -2090 717 -1087 1872 -1806 3160 -1970 82
-10 197 -21 255 -24 58 -3 152 -8 210 -11 137 -7 466 10 662 35 1200 152 2273
777 3016 1756 84 112 238 349 312 480 484 861 670 1856 530 2827 l-18 128 42
39 c58 53 96 134 103 219 14 165 -84 310 -242 360 -56 17 -60 21 -73 62 -103
317 -299 714 -505 1024 -163 244 -315 431 -527 649 -632 647 -1414 1077 -2295
1260 -350 72 -807 106 -1152 85z m602 -710 c876 -76 1734 -490 2354 -1135 326
-340 598 -752 767 -1166 52 -125 107 -279 102 -283 -7 -7 -241 -56 -336 -70
-104 -15 -122 -14 -122 8 0 62 -64 153 -130 187 -154 79 -420 101 -1220 101
-580 0 -746 -10 -937 -56 -59 -14 -139 -41 -178 -59 l-70 -32 -101 32 c-286
91 -636 98 -939 18 -71 -19 -134 -35 -140 -35 -5 0 -48 15 -95 35 -197 81
-384 97 -1085 97 -689 -1 -925 -14 -1103 -62 -92 -24 -138 -48 -179 -91 -32
-34 -63 -97 -63 -129 0 -10 -4 -20 -9 -24 -17 -10 -431 64 -449 80 -1 1 15 51
36 111 150 418 369 798 665 1154 92 111 337 356 452 451 448 374 941 627 1499
769 240 61 455 93 766 114 83 5 379 -3 515 -15z m-222 -3029 c51 -6 119 -19
152 -28 l60 -18 8 -125 c19 -293 105 -563 241 -754 59 -82 185 -203 271 -261
264 -175 609 -236 985 -174 567 94 980 419 1170 923 l33 87 51 0 c28 0 114 9
191 21 117 17 191 31 426 81 16 4 23 -48 39 -272 14 -190 7 -397 -20 -640
-132 -1156 -808 -2196 -1819 -2799 -717 -428 -1591 -607 -2416 -495 -1551 211
-2801 1340 -3170 2864 -65 269 -97 552 -98 860 -1 173 15 436 28 476 2 8 33 4
101 -12 138 -33 382 -74 491 -81 l92 -6 22 -61 c190 -519 595 -844 1179 -947
149 -27 384 -29 520 -5 592 104 938 532 978 1211 l7 110 65 17 c135 37 258 45
413 28z"/>
<path d="M6865 3658 c-294 -388 -650 -614 -1100 -702 -239 -46 -424 -57 -940
-57 -526 0 -571 3 -984 73 -194 32 -274 41 -376 42 -121 1 -133 -1 -174 -24
-56 -31 -81 -74 -88 -148 -11 -120 37 -242 127 -325 66 -61 200 -127 320 -157
296 -75 861 -98 1330 -54 971 91 1593 512 1905 1288 31 77 54 143 53 148 -2 4
-34 -34 -73 -84z"/>
</g>
</svg>
